<!-- <svg xmlns="http://www.w3.org/2000/svg" fill="#ff0000" width="24" height="24" viewBox="0 0 24 24"><path d="M16.142 2l5.858 5.858v8.284l-5.858 5.858h-8.284l-5.858-5.858v-8.284l5.858-5.858h8.284zm.829-2h-9.942l-7.029 7.029v9.941l7.029 7.03h9.941l7.03-7.029v-9.942l-7.029-7.029zm-8.482 16.992l3.518-3.568 3.554 3.521 1.431-1.43-3.566-3.523 3.535-3.568-1.431-1.432-3.539 3.583-3.581-3.457-1.418 1.418 3.585 3.473-3.507 3.566 1.419 1.417z"/></svg> -->
<svg clip-rule="evenodd" fill-rule="evenodd" fill="#ff0000" stroke-linejoin="round" stroke-miterlimit="2" viewBox="0 0 24 24" xmlns="http://www.w3.org/2000/svg"><path d="m12.002 21.534c5.518 0 9.998-4.48 9.998-9.998s-4.48-9.997-9.998-9.997c-5.517 0-9.997 4.479-9.997 9.997s4.48 9.998 9.997 9.998zm0-8c-.414 0-.75-.336-.75-.75v-5.5c0-.414.336-.75.75-.75s.75.336.75.75v5.5c0 .414-.336.75-.75.75zm-.002 3c-.552 0-1-.448-1-1s.448-1 1-1 1 .448 1 1-.448 1-1 1z" fill-rule="nonzero"/></svg>